<svg width="25" height="25" viewBox="0 0 25 25" fill="none" xmlns="http://www.w3.org/2000/svg">
<path d="M23.375 7.66667V17.3333C23.375 18.9357 22.7385 20.4724 21.6054 21.6054C20.4724 22.7385 18.9357 23.375 17.3333 23.375H7.66667C6.06432 23.375 4.5276 22.7385 3.39456 21.6054C2.26153 20.4724 1.625 18.9357 1.625 17.3333V7.66667C1.625 6.06432 2.26153 4.5276 3.39456 3.39456C4.5276 2.26153 6.06432 1.625 7.66667 1.625H17.3333C18.9357 1.625 20.4724 2.26153 21.6054 3.39456C22.7385 4.5276 23.375 6.06432 23.375 7.66667Z" stroke="#4F4F4F" stroke-width="1.5" stroke-linecap="round" stroke-linejoin="round"/>
<path d="M11.292 23.3748V12.4998C11.292 9.856 11.8962 7.6665 16.1253 7.6665" stroke="#4F4F4F" stroke-width="1.5" stroke-linecap="round" stroke-linejoin="round"/>
<path d="M8.875 13.7085H16.125" stroke="#4F4F4F" stroke-width="1.5" stroke-linecap="round" stroke-linejoin="round"/>
</svg>
